HIERARCHY
ROOT Hips
{
  OFFSET 0.0 0.0 0.0
  CHANNELS 6 XPOSITION YPOSITION ZPOSITION ZROTATION XROTATION YROTATION 
  JOINT LeftUpLeg
  {
    OFFSET 0.08945800000000001 -0.0866707 0.0010165200000000001
    CHANNELS 3 ZROTATION XROTATION YROTATION 
    JOINT LeftLeg
    {
      OFFSET 0.0 -0.444227 0.013727000000000001
      CHANNELS 3 ZROTATION XROTATION YROTATION 
      JOINT LeftFoot
      {
        OFFSET -0.0025354900000000005 -0.42092399999999996 -0.014605900000000002
        CHANNELS 3 ZROTATION XROTATION YROTATION 
        End Site
        {
          OFFSET -0.0004 -0.0441509 0.08499100000000001
        }
      }
    }
  }
  JOINT Spine
  {
    OFFSET 0.0 0.118905 0.0
    CHANNELS 3 ZROTATION XROTATION YROTATION 
    JOINT Spine1
    {
      OFFSET 0.0 0.25657399999999997 0.00127663
      CHANNELS 3 ZROTATION XROTATION YROTATION 
      End Site
      {
        OFFSET -0.0029 0.21508359999999999 0.02525291
      }
      JOINT RightArm
      {
        OFFSET -0.162727 -0.05365632 0.0010212299999999997
        CHANNELS 3 ZROTATION XROTATION YROTATION 
        JOINT RightForeArm
        {
          OFFSET -0.26364 0.00099144 -0.0142434
          CHANNELS 3 ZROTATION XROTATION YROTATION 
          End Site
          {
            OFFSET -0.220324 0.0008536199999999999 0.010221599999999999
          }
        }
      }
      JOINT LeftArm
      {
        OFFSET 0.162727 -0.053656319900000006 0.0010212299999999997
        CHANNELS 3 ZROTATION XROTATION YROTATION 
        JOINT LeftForeArm
        {
          OFFSET 0.26259699999999997 0.00099144 -0.0142434
          CHANNELS 3 ZROTATION XROTATION YROTATION 
          End Site
          {
            OFFSET 0.220902 0.0008536199999999999 0.010221599999999999
          }
        }
      }
    }
  }
  JOINT RightUpLeg
  {
    OFFSET -0.08945800000000001 -0.0866707 0.0010165200000000001
    CHANNELS 3 ZROTATION XROTATION YROTATION 
    JOINT RightLeg
    {
      OFFSET 0.0 -0.444227 0.013727000000000001
      CHANNELS 3 ZROTATION XROTATION YROTATION 
      JOINT RightFoot
      {
        OFFSET 0.0025354900000000005 -0.42092399999999996 -0.014605900000000002
        CHANNELS 3 ZROTATION XROTATION YROTATION 
        End Site
        {
          OFFSET 0.0004 -0.0441509 0.08499100000000001
        }
      }
    }
  }
}
MOTION
Frames: 7
Frame Time: 0.033333
1.89239 0.9862479093824383 0.029842200000000003 -3.3411998355930654 -0.06725049613519511 -86.45900021231178 0.4127330169790909 -2.6210799713505155 0.28504300397167276 1.7621199703630608 14.355599389979005 13.473699878498945 -4.213688413613906 -7.749801570995037 -0.10220108771635944 0.558041983198233 10.515299915929948 -0.255461001109098 0.5269310051373538 -2.293979864121078 -0.1825729975670639 76.19138856889587 -12.418337467762656 4.135415299499206 6.695529856091834 29.68670005759757 12.571899757098405 -73.19495042906543 -2.1728236207458647 -2.6972914355529296 -2.7012798391413937 31.736501299220926 -17.82529962985234 -0.06817239825037494 0.03942970157281175 -4.445730003399926 1.297769986526567 12.677199929758846 -15.296599674573539 2.044575293134651 -9.850400637023071 -0.09238008277278108 
1.89207 0.9861979093824382 0.0294881 -3.32997996922085 -0.027469198235159736 -86.46589870337348 0.4536329901419206 -2.6572599102708963 0.22450802453362823 1.8007800150040965 14.438400065739778 13.520399589401615 -4.224097195022182 -7.772601596218185 -0.10220705079166997 0.6359330336062352 10.391699958935751 -0.26319498972494737 0.4763969967893682 -2.195780099989689 -0.17599500512802593 76.26872680086794 -11.948829410442332 4.167255933862513 6.497640065929524 29.381400846981755 12.946399883063851 -73.13832816084603 -3.0112891055201674 -2.7798953164882407 -3.0872098597960322 32.521802299043145 -17.182700064811907 -0.014266599317030455 0.0421860997845751 -4.434849938938918 1.3261500628582046 12.681899953681462 -15.30479931667214 2.0432860949288107 -9.869500407263365 -0.0923855122395627 
1.89136 0.9860079093824383 0.028836499999999998 -3.368929976736494 0.02490819912904895 -86.43680209750923 0.4999689934712871 -2.6663199427615067 0.06402000342076421 1.877910139649877 14.612100314069664 13.63449960703397 -4.200355030580394 -7.834001581762015 -0.10222187176856037 0.6652399879525848 10.250399566707467 -0.28829300007783526 0.5263580162990131 -2.0652598807057996 -0.20186399976390546 76.39807009318046 -11.100548090057076 4.194773912254848 6.243410179737895 28.53789980524186 13.56710015407793 -73.03000136060963 -4.509956833486495 -2.815242826103526 -3.783249892119702 33.92009911649566 -16.040999794098425 0.08097019840342189 0.1251590010331053 -4.428910235681946 1.3549201003027678 12.693000718630024 -15.345399668645987 2.0384089129745986 -9.93060071825736 -0.09240264107334063 
1.8906200000000002 0.9857579093824382 0.0281885 -3.474660024427822 0.049352899219782455 -86.33210212772211 0.5311629476584113 -2.6296499377681775 -0.11643499517336106 1.9340000800008448 14.829199584385812 13.704800182839973 -4.167440775856926 -7.927902168697704 -0.10224534387372568 0.5444830438395527 10.163300140637817 -0.31402301637236085 0.7631219348441566 -1.8941499816186402 -0.26518502937265404 76.50303644034523 -10.313397816517078 4.231383299319293 6.062169829451136 27.703899556637452 14.09389983815632 -72.94482890165956 -5.839146650690472 -2.7817983779457354 -4.386930185495755 35.31989857556559 -15.0151992958636 0.17228799999728087 0.29749900118152817 -4.429679912624042 1.351220058763325 12.692499553499674 -15.448900940233775 2.033463002241863 -10.013199903437616 -0.0924260931681861 
1.89011 0.9855579093824383 0.027685 -3.5733799501531895 0.04810699667595676 -86.20350332602911 0.5580430504152908 -2.599230196195645 -0.2263049779351498 1.94689014106854 15.011698823913967 13.682999926556585 -4.173339924865702 -8.018401321426726 -0.10305840985932826 0.4319840118764776 10.150100800066767 -0.3325350168180639 0.9457460921289295 -1.7852500858221916 -0.3137319862806948 76.57961652131941 -9.72690398664007 4.23301614141775 5.854760036246298 27.46380133183858 14.47530016273077 -72.8975571624139 -6.585965084068367 -2.6939762324845344 -4.66596988007381 36.35140057421008 -14.457101123687272 0.23490800140117757 0.4527619809401853 -4.426590105798257 1.331870026122973 12.683899491560982 -15.577200921150588 2.026206780022371 -10.084900668023472 -0.09244658373569614 
1.8898599999999999 0.9854679093824381 0.0272991 -3.5945902488470183 0.04018430073891262 -86.13759883072765 0.5754519753100368 -2.6104500625678604 -0.2698700055347539 1.9489599018304653 15.0951005563217 13.658700674810618 -4.205351313958259 -8.06170215944367 -0.1056789346643653 0.5673629502594789 10.299099669263303 -0.3702860059692533 0.7315709965511934 -2.0296500491377034 -0.3047400155579466 76.7002240016835 -9.27919533182949 4.080679444151193 5.58605954052435 27.697899235451597 14.782199345159661 -72.79389538138062 -6.798331033289696 -2.428255833674828 -4.661260037754263 36.77090054774851 -14.365199220857457 0.26165899757448785 0.4915020134997043 -4.423200197535816 1.3284399904991573 12.697599997262381 -15.648999869705762 2.0257395523944597 -10.140401077671703 -0.09246258532145675 
1.88978 0.9854579093824383 0.0269548 -3.558889917272419 0.027545699355411853 -86.13259913225521 0.5733859498078137 -2.640210050555252 -0.29656299846097195 1.9606198885173234 15.0858985839624 13.683700874720156 -4.218273178094277 -8.047002738576156 -0.1071999190749493 0.9117140342591062 10.623999815249762 -0.44511499719497427 0.18329599710309355 -2.650200055990042 -0.2685979895235448 76.89918741220596 -9.048252121839372 3.8025370656753488 5.412739648353869 27.975000010079015 14.935899092052459 -72.60297793370043 -6.682292522593526 -1.9491039761332702 -4.547209965880214 36.55239938110522 -14.536099091627639 0.26601500407851636 0.4408850290254736 -4.417730069784282 1.3317099435643007 12.737400363329693 -15.665998503002632 2.0503517121817776 -10.182901076008461 -0.09247489166815467 
